<svg width="12" height="7" viewBox="0 0 12 7" fill="none" xmlns="http://www.w3.org/2000/svg">
<path d="M1.71244 6.29245L5.59244 2.41245L9.47244 6.29245C9.56503 6.38503 9.67494 6.45847 9.7959 6.50858C9.91686 6.55868 10.0465 6.58447 10.1774 6.58447C10.3084 6.58447 10.438 6.55868 10.559 6.50858C10.68 6.45847 10.7899 6.38503 10.8824 6.29245C10.975 6.19987 11.0485 6.08996 11.0986 5.969C11.1487 5.84803 11.1745 5.71838 11.1745 5.58745C11.1745 5.45652 11.1487 5.32687 11.0986 5.20591C11.0485 5.08494 10.975 4.97503 10.8824 4.88245L6.29244 0.292452C6.19993 0.199749 6.09004 0.126201 5.96907 0.0760193C5.84809 0.0258379 5.71841 7.62939e-06 5.58744 7.62939e-06C5.45648 7.62939e-06 5.32679 0.0258379 5.20582 0.0760193C5.08485 0.126201 4.97496 0.199749 4.88244 0.292452L0.292444 4.88245C0.19974 4.97497 0.126193 5.08485 0.0760112 5.20583C0.0258297 5.3268 0 5.45648 0 5.58745C0 5.71842 0.0258297 5.8481 0.0760112 5.96908C0.126193 6.09005 0.19974 6.19994 0.292444 6.29245C0.682444 6.67245 1.32244 6.68245 1.71244 6.29245Z" fill="black"/>
</svg>
