<svg width="12" height="7" viewBox="0 0 12 7" fill="none" xmlns="http://www.w3.org/2000/svg">
<path d="M1.71244 0.292021L5.59244 4.17202L9.47244 0.292021C9.56503 0.199439 9.67494 0.125999 9.7959 0.0758944C9.91686 0.0257894 10.0465 9.75511e-10 10.1774 0C10.3084 -9.75506e-10 10.438 0.0257894 10.559 0.0758944C10.68 0.125999 10.7899 0.199439 10.8824 0.292021C10.975 0.384603 11.0485 0.494513 11.0986 0.615478C11.1487 0.736442 11.1745 0.86609 11.1745 0.997021C11.1745 1.12795 11.1487 1.2576 11.0986 1.37856C11.0485 1.49953 10.975 1.60944 10.8824 1.70202L6.29244 6.29202C6.19993 6.38472 6.09004 6.45827 5.96907 6.50845C5.84809 6.55863 5.71841 6.58447 5.58744 6.58447C5.45648 6.58447 5.32679 6.55863 5.20582 6.50845C5.08485 6.45827 4.97496 6.38472 4.88244 6.29202L0.292444 1.70202C0.19974 1.60951 0.126193 1.49962 0.0760112 1.37864C0.0258297 1.25767 0 1.12799 0 0.997021C0 0.866052 0.0258297 0.73637 0.0760112 0.615396C0.126193 0.494423 0.19974 0.384534 0.292444 0.292021C0.682444 -0.0879792 1.32244 -0.0979792 1.71244 0.292021Z" fill="black"/>
</svg>
