<svg width="30" height="30" viewBox="0 0 30 30" fill="none" xmlns="http://www.w3.org/2000/svg">
<path d="M30 15.0029C30 15.5712 29.8104 16.1162 29.4729 16.518C29.1354 16.9199 28.6776 17.1456 28.2003 17.1456H6.15351L13.8774 26.3416C14.0452 26.5406 14.1783 26.7772 14.2691 27.0376C14.36 27.2981 14.4067 27.5773 14.4067 27.8593C14.4067 28.1414 14.36 28.4206 14.2691 28.681C14.1783 28.9415 14.0452 29.178 13.8774 29.3771C13.5378 29.7762 13.0798 30 12.6026 30C12.1254 30 11.6674 29.7762 11.3278 29.3771L0.529341 16.5207C0.361558 16.3216 0.228432 16.0851 0.137595 15.8246C0.0467589 15.5642 0 15.2849 0 15.0029C0 14.7209 0.0467589 14.4416 0.137595 14.1812C0.228432 13.9207 0.361558 13.6842 0.529341 13.4851L11.3278 0.628683C11.6659 0.226144 12.1244 0 12.6026 0C12.8393 0 13.0738 0.05552 13.2925 0.16339C13.5112 0.271259 13.71 0.429366 13.8774 0.628683C14.0448 0.828 14.1776 1.06462 14.2682 1.32504C14.3588 1.58546 14.4054 1.86458 14.4054 2.14646C14.4054 2.42833 14.3588 2.70745 14.2682 2.96787C14.1776 3.22829 14.0448 3.46491 13.8774 3.66423L6.15351 12.8602H28.2003C28.6776 12.8602 29.1354 13.0859 29.4729 13.4878C29.8104 13.8896 30 14.4346 30 15.0029Z" fill="black"/>
</svg>
