<svg width="34" height="37" viewBox="0 0 34 37" fill="none" xmlns="http://www.w3.org/2000/svg">
<path id="Vector" d="M10.6499 28.8806C8.82037 28.876 7.33665 30.4954 7.33241 32.4792C7.32816 34.463 8.80494 36.0898 10.6345 36.0944C12.464 36.099 13.9643 34.4797 13.9686 32.4959C13.9728 30.512 12.4794 28.8852 10.6499 28.8806ZM27.2819 28.9224C25.4523 28.9178 23.9686 30.5372 23.9644 32.521C23.9601 34.5048 25.4369 36.1317 27.2664 36.1363C29.0959 36.1409 30.5963 34.5215 30.6005 32.5377C30.6048 30.5539 29.1114 28.927 27.2819 28.9224ZM12.4987 19.8678L24.8895 19.899C26.1369 19.9021 27.2362 19.1655 27.8041 18.0487L33.9849 5.42192L31.0781 3.68327L24.8972 16.2921L13.2216 16.2627L6.17108 0.0136778L0.732422 0L0.724707 3.60693L4.0511 3.6153L10.0093 17.3187L7.7546 21.7135C6.5353 24.1271 8.12568 27.0707 10.6537 27.0771L30.6121 27.1273L30.6198 23.5204L10.6615 23.4702L12.4987 19.8678ZM19.0276 0.0460109L25.6649 7.27661L18.9967 14.4737L16.6571 11.925L19.291 9.06405L12.3555 9.04661L12.3632 5.43968L19.2988 5.45712L16.6604 2.58296L19.0276 0.0460109Z" fill="#0000FF"/>
</svg>
