<svg width="37" height="37" viewBox="0 0 37 37" fill="none" xmlns="http://www.w3.org/2000/svg">
<path d="M10.8374 28.8806C8.85356 28.876 7.24471 30.4954 7.24011 32.4792C7.23551 34.463 8.83683 36.0898 10.8206 36.0944C12.8045 36.099 14.4313 34.4797 14.4359 32.4959C14.4405 30.512 12.8212 28.8852 10.8374 28.8806ZM28.872 28.9224C26.8882 28.9178 25.2794 30.5372 25.2748 32.521C25.2702 34.5048 26.8715 36.1317 28.8553 36.1363C30.8391 36.1409 32.466 34.5215 32.4706 32.5377C32.4752 30.5539 30.8558 28.927 28.872 28.9224ZM12.8421 19.8678L26.2779 19.899C27.6305 19.9021 28.8225 19.1655 29.4383 18.0487L36.1404 5.42192L32.9884 3.68327L26.2863 16.2921L13.626 16.2627L5.98083 0.0136778L0.0834961 0L0.0751305 3.60693L3.68206 3.6153L10.1428 17.3187L7.69791 21.7135C6.37577 24.1271 8.10028 27.0707 10.8416 27.0771L32.4832 27.1273L32.4915 23.5204L10.8499 23.4702L12.8421 19.8678ZM19.9216 0.0460109L27.1188 7.27661L19.8882 14.4737L17.3512 11.925L20.2073 9.06406L12.6868 9.04661L12.6952 5.43968L20.2157 5.45712L17.3548 2.58296L19.9216 0.0460109Z" fill="black"/>
</svg>
