<svg width="24" height="22" viewBox="0 0 24 22" fill="none" xmlns="http://www.w3.org/2000/svg">
<path d="M12.12 18.4491L12 18.562L11.868 18.4491C6.168 13.5807 2.4 10.3615 2.4 7.09708C2.4 4.83798 4.2 3.14365 6.6 3.14365C8.448 3.14365 10.248 4.2732 10.884 5.80939H13.116C13.752 4.2732 15.552 3.14365 17.4 3.14365C19.8 3.14365 21.6 4.83798 21.6 7.09708C21.6 10.3615 17.832 13.5807 12.12 18.4491ZM17.4 0.884552C15.312 0.884552 13.308 1.79949 12 3.23402C10.692 1.79949 8.688 0.884552 6.6 0.884552C2.904 0.884552 0 3.60677 0 7.09708C0 11.3555 4.08 14.8458 10.26 20.1208L12 21.6118L13.74 20.1208C19.92 14.8458 24 11.3555 24 7.09708C24 3.60677 21.096 0.884552 17.4 0.884552Z" fill="black"/>
</svg>
