<svg width="33" height="31" viewBox="0 0 33 31" fill="none" xmlns="http://www.w3.org/2000/svg">
<path d="M9.80646 0.535223C10.1225 0.87837 10.3001 1.34352 10.3001 1.8285C10.3001 2.31349 10.1225 2.77864 9.80646 3.12178L5.30574 8.00209C4.98928 8.34481 4.56031 8.53731 4.11305 8.53731C3.66579 8.53731 3.23681 8.34481 2.92036 8.00209L0.669993 5.56194C0.371865 5.21501 0.209561 4.75615 0.217276 4.28202C0.224991 3.8079 0.402121 3.35553 0.71135 3.02022C1.02058 2.68491 1.43776 2.49284 1.87501 2.48448C2.31226 2.47611 2.73543 2.6521 3.05538 2.97538L4.11305 4.12225L7.42108 0.535223C7.73754 0.192503 8.16651 0 8.61377 0C9.06103 0 9.49001 0.192503 9.80646 0.535223ZM11.9893 4.87869C11.9893 4.39332 12.1671 3.92782 12.4837 3.58461C12.8002 3.24139 13.2295 3.04858 13.6771 3.04858H30.5548C31.0024 3.04858 31.4317 3.24139 31.7482 3.58461C32.0648 3.92782 32.2426 4.39332 32.2426 4.87869C32.2426 5.36407 32.0648 5.82957 31.7482 6.17278C31.4317 6.51599 31.0024 6.70881 30.5548 6.70881H13.6771C13.2295 6.70881 12.8002 6.51599 12.4837 6.17278C12.1671 5.82957 11.9893 5.36407 11.9893 4.87869ZM11.9893 15.2493C11.9893 14.764 12.1671 14.2985 12.4837 13.9553C12.8002 13.612 13.2295 13.4192 13.6771 13.4192H30.5548C31.0024 13.4192 31.4317 13.612 31.7482 13.9553C32.0648 14.2985 32.2426 14.764 32.2426 15.2493C32.2426 15.7347 32.0648 16.2002 31.7482 16.5434C31.4317 16.8866 31.0024 17.0795 30.5548 17.0795H13.6771C13.2295 17.0795 12.8002 16.8866 12.4837 16.5434C12.1671 16.2002 11.9893 15.7347 11.9893 15.2493ZM9.80646 22.4966C10.1225 22.8397 10.3001 23.3049 10.3001 23.7899C10.3001 24.2749 10.1225 24.74 9.80646 25.0832L5.30574 29.9635C4.98928 30.3062 4.56031 30.4987 4.11305 30.4987C3.66579 30.4987 3.23681 30.3062 2.92036 29.9635L0.669993 27.5233C0.504171 27.3558 0.371169 27.1537 0.278922 26.9292C0.186676 26.7047 0.137074 26.4624 0.133075 26.2167C0.129077 25.9709 0.170764 25.7268 0.25565 25.499C0.340536 25.2711 0.466881 25.0641 0.627149 24.8903C0.787418 24.7165 0.978324 24.5795 1.18848 24.4875C1.39864 24.3954 1.62374 24.3502 1.85036 24.3545C2.07698 24.3589 2.30047 24.4127 2.5075 24.5127C2.71453 24.6127 2.90086 24.7569 3.05538 24.9367L4.11305 26.0836L7.42108 22.4966C7.73754 22.1539 8.16651 21.9614 8.61377 21.9614C9.06103 21.9614 9.49001 22.1539 9.80646 22.4966ZM11.9893 25.62C11.9893 25.1346 12.1671 24.6691 12.4837 24.3259C12.8002 23.9827 13.2295 23.7899 13.6771 23.7899H30.5548C31.0024 23.7899 31.4317 23.9827 31.7482 24.3259C32.0648 24.6691 32.2426 25.1346 32.2426 25.62C32.2426 26.1054 32.0648 26.5709 31.7482 26.9141C31.4317 27.2573 31.0024 27.4501 30.5548 27.4501H13.6771C13.2295 27.4501 12.8002 27.2573 12.4837 26.9141C12.1671 26.5709 11.9893 26.1054 11.9893 25.62Z" fill="black"/>
</svg>
