<svg width="27" height="27" viewBox="0 0 27 27" fill="none" xmlns="http://www.w3.org/2000/svg">
<g id="iconoir:small-shop">
<g id="Group">
<path id="Vector" d="M24.5453 10.5345L22.6395 3.86437C22.5992 3.72335 22.514 3.59931 22.3969 3.51101C22.2797 3.42271 22.1371 3.37497 21.9904 3.375H17.4375L17.9719 9.792C17.98 9.89518 18.0125 9.99495 18.0669 10.083C18.1213 10.1711 18.196 10.2448 18.2846 10.2983C18.7234 10.5604 19.5806 11.0441 20.25 11.25C21.393 11.6021 23.0625 11.475 24.0143 11.358C24.1068 11.346 24.1956 11.314 24.2745 11.2642C24.3533 11.2144 24.4204 11.148 24.471 11.0695C24.5215 10.9911 24.5544 10.9026 24.5672 10.8102C24.58 10.7178 24.5725 10.6237 24.5453 10.5345Z" stroke="black" stroke-width="1.6875"/>
<path id="Vector_2" d="M15.7503 11.25C16.3893 11.0531 17.1993 10.6042 17.6515 10.3365C17.7569 10.2738 17.8425 10.1825 17.8982 10.0732C17.9539 9.96388 17.9776 9.84105 17.9665 9.71887L17.4378 3.375H9.56277L9.03402 9.71887C9.02269 9.84124 9.04627 9.9643 9.10202 10.0738C9.15777 10.1833 9.24341 10.2748 9.34902 10.3376C9.80127 10.6043 10.6113 11.0531 11.2503 11.25C12.9299 11.7675 14.0706 11.7675 15.7503 11.25Z" stroke="black" stroke-width="1.6875"/>
<path id="Vector_3" d="M4.35989 3.86437L2.45414 10.5356C2.42724 10.6247 2.42005 10.7186 2.43306 10.8107C2.44608 10.9028 2.47899 10.991 2.52951 11.0692C2.58004 11.1473 2.64696 11.2135 2.72564 11.2632C2.80432 11.3129 2.89287 11.3449 2.98514 11.3569C3.93576 11.475 5.60639 11.601 6.74939 11.25C7.41876 11.0441 8.27714 10.5604 8.71476 10.2994C8.80357 10.2459 8.87829 10.1719 8.93269 10.0836C8.9871 9.99537 9.01961 9.89538 9.02751 9.792L9.56189 3.375H5.00901C4.86234 3.37497 4.71964 3.42271 4.60252 3.51101C4.4854 3.59931 4.40022 3.72335 4.35989 3.86437Z" stroke="black" stroke-width="1.6875"/>
<path id="Vector_4" d="M3.375 11.25V21.375C3.375 21.9717 3.61205 22.544 4.03401 22.966C4.45597 23.3879 5.02826 23.625 5.625 23.625H21.375C21.9717 23.625 22.544 23.3879 22.966 22.966C23.3879 22.544 23.625 21.9717 23.625 21.375V11.25" stroke="black" stroke-width="1.6875"/>
</g>
</g>
</svg>
